<svg width="389" height="88" viewBox="0 0 389 88" fill="none" xmlns="http://www.w3.org/2000/svg">
<path d="M0.968 53.896C0.968 48.264 1.82133 43.4 3.528 39.304C5.23467 35.1227 7.58133 31.6667 10.568 28.936C13.64 26.2053 17.1813 24.2 21.192 22.92C25.288 21.5547 29.6827 20.872 34.376 20.872C36.0827 20.872 37.7467 21.0427 39.368 21.384C40.9893 21.64 42.312 21.9813 43.336 22.408V1.672C44.1893 1.416 45.5547 1.16 47.432 0.903999C49.3093 0.562665 51.2293 0.391998 53.192 0.391998C55.0693 0.391998 56.7333 0.519997 58.184 0.775993C59.72 1.032 61 1.544 62.024 2.312C63.048 3.08 63.816 4.14666 64.328 5.51199C64.84 6.792 65.096 8.49866 65.096 10.632V71.304C65.096 75.3147 63.2187 78.5147 59.464 80.904C56.9893 82.5253 53.7893 83.9333 49.864 85.128C45.9387 86.408 41.416 87.048 36.296 87.048C30.7493 87.048 25.7573 86.28 21.32 84.744C16.968 83.208 13.256 80.9893 10.184 78.088C7.19733 75.1867 4.89333 71.7307 3.272 67.72C1.736 63.624 0.968 59.016 0.968 53.896ZM37.32 37.896C32.712 37.896 29.1707 39.2187 26.696 41.864C24.2213 44.5093 22.984 48.52 22.984 53.896C22.984 59.1867 24.136 63.1973 26.44 65.928C28.744 68.5733 32.072 69.896 36.424 69.896C37.96 69.896 39.3253 69.6827 40.52 69.256C41.8 68.744 42.7813 68.1893 43.464 67.592V39.432C41.7573 38.408 39.7093 37.896 37.32 37.896ZM139.2 53.896C139.2 59.1867 138.389 63.9227 136.768 68.104C135.147 72.2 132.843 75.656 129.856 78.472C126.955 81.288 123.456 83.4213 119.36 84.872C115.264 86.3227 110.699 87.048 105.664 87.048C100.629 87.048 96.064 86.28 91.968 84.744C87.872 83.208 84.3307 81.032 81.344 78.216C78.4427 75.3147 76.1813 71.816 74.56 67.72C72.9387 63.624 72.128 59.016 72.128 53.896C72.128 48.8613 72.9387 44.296 74.56 40.2C76.1813 36.104 78.4427 32.648 81.344 29.832C84.3307 26.9307 87.872 24.712 91.968 23.176C96.064 21.64 100.629 20.872 105.664 20.872C110.699 20.872 115.264 21.6827 119.36 23.304C123.456 24.84 126.955 27.0587 129.856 29.96C132.843 32.776 135.147 36.232 136.768 40.328C138.389 44.424 139.2 48.9467 139.2 53.896ZM94.4 53.896C94.4 59.1013 95.3813 63.112 97.344 65.928C99.392 68.6587 102.208 70.024 105.792 70.024C109.376 70.024 112.107 68.616 113.984 65.8C115.947 62.984 116.928 59.016 116.928 53.896C116.928 48.776 115.947 44.8507 113.984 42.12C112.021 39.304 109.248 37.896 105.664 37.896C102.08 37.896 99.3067 39.304 97.344 42.12C95.3813 44.8507 94.4 48.776 94.4 53.896ZM185.4 45.576C185.4 42.9307 184.632 41.0107 183.096 39.816C181.645 38.536 179.64 37.896 177.08 37.896C175.373 37.896 173.667 38.1093 171.96 38.536C170.339 38.9627 168.931 39.6027 167.736 40.456V84.872C166.883 85.128 165.517 85.384 163.64 85.64C161.848 85.896 159.971 86.024 158.008 86.024C156.131 86.024 154.424 85.896 152.888 85.64C151.437 85.384 150.2 84.872 149.176 84.104C148.152 83.336 147.341 82.312 146.744 81.032C146.232 79.6667 145.976 77.9173 145.976 75.784V37.384C145.976 35.08 146.445 33.2027 147.384 31.752C148.408 30.3013 149.773 28.9787 151.48 27.784C154.381 25.736 158.008 24.072 162.36 22.792C166.797 21.512 171.704 20.872 177.08 20.872C186.723 20.872 194.147 23.0053 199.352 27.272C204.557 31.4533 207.16 37.2987 207.16 44.808V84.872C206.307 85.128 204.941 85.384 203.064 85.64C201.272 85.896 199.395 86.024 197.432 86.024C195.555 86.024 193.848 85.896 192.312 85.64C190.861 85.384 189.624 84.872 188.6 84.104C187.576 83.336 186.765 82.312 186.168 81.032C185.656 79.6667 185.4 77.9173 185.4 75.784V45.576ZM243.385 71.176C244.836 71.176 246.414 71.048 248.121 70.792C249.913 70.4507 251.236 70.024 252.089 69.512V59.272L242.873 60.04C240.484 60.2107 238.521 60.7227 236.985 61.576C235.449 62.4293 234.681 63.7093 234.681 65.416C234.681 67.1227 235.321 68.5307 236.601 69.64C237.966 70.664 240.228 71.176 243.385 71.176ZM242.361 20.872C246.969 20.872 251.15 21.3413 254.905 22.28C258.745 23.2187 261.988 24.6693 264.633 26.632C267.364 28.5093 269.454 30.9413 270.905 33.928C272.356 36.8293 273.081 40.2853 273.081 44.296V72.968C273.081 75.1867 272.441 77.0213 271.161 78.472C269.966 79.8373 268.516 81.032 266.809 82.056C261.262 85.384 253.454 87.048 243.385 87.048C238.862 87.048 234.766 86.6213 231.097 85.768C227.513 84.9147 224.398 83.6347 221.753 81.928C219.193 80.2213 217.188 78.0453 215.737 75.4C214.372 72.7547 213.689 69.6827 213.689 66.184C213.689 60.296 215.438 55.7733 218.937 52.616C222.436 49.4587 227.854 47.496 235.193 46.728L251.961 44.936V44.04C251.961 41.5653 250.852 39.816 248.633 38.792C246.5 37.6827 243.385 37.128 239.289 37.128C236.046 37.128 232.889 37.4693 229.817 38.152C226.745 38.8347 223.972 39.688 221.497 40.712C220.388 39.944 219.449 38.792 218.681 37.256C217.913 35.6347 217.529 33.9707 217.529 32.264C217.529 30.0453 218.041 28.296 219.065 27.016C220.174 25.6507 221.838 24.4987 224.057 23.56C226.532 22.6213 229.433 21.9387 232.761 21.512C236.174 21.0853 239.374 20.872 242.361 20.872ZM304.306 84.872C303.453 85.128 302.087 85.384 300.21 85.64C298.418 85.896 296.541 86.024 294.578 86.024C292.701 86.024 290.994 85.896 289.458 85.64C288.007 85.384 286.77 84.872 285.746 84.104C284.722 83.336 283.911 82.312 283.314 81.032C282.802 79.6667 282.546 77.9173 282.546 75.784V37.384C282.546 35.4213 282.887 33.7573 283.57 32.392C284.338 30.9413 285.405 29.6613 286.77 28.552C288.135 27.4427 289.799 26.4613 291.762 25.608C293.81 24.6693 295.986 23.8587 298.29 23.176C300.594 22.4933 302.983 21.9813 305.458 21.64C307.933 21.2133 310.407 21 312.882 21C316.978 21 320.221 21.8107 322.61 23.432C324.999 24.968 326.194 27.528 326.194 31.112C326.194 32.3067 326.023 33.5013 325.682 34.696C325.341 35.8053 324.914 36.8293 324.402 37.768C322.61 37.768 320.775 37.8533 318.898 38.024C317.021 38.1947 315.186 38.4507 313.394 38.792C311.602 39.1333 309.895 39.5173 308.274 39.944C306.738 40.2853 305.415 40.712 304.306 41.224V84.872ZM361.852 87.048C356.817 87.048 352.124 86.3653 347.772 85C343.505 83.5493 339.751 81.416 336.508 78.6C333.351 75.784 330.833 72.2427 328.956 67.976C327.164 63.7093 326.268 58.7173 326.268 53C326.268 47.368 327.164 42.5467 328.956 38.536C330.833 34.44 333.265 31.112 336.252 28.552C339.239 25.9067 342.652 23.9867 346.492 22.792C350.332 21.512 354.257 20.872 358.268 20.872C362.791 20.872 366.887 21.5547 370.556 22.92C374.311 24.2853 377.511 26.1627 380.156 28.552C382.887 30.9413 384.977 33.8 386.428 37.128C387.964 40.456 388.732 44.0827 388.732 48.008C388.732 50.9093 387.921 53.128 386.3 54.664C384.679 56.2 382.417 57.1813 379.516 57.608L347.9 62.344C348.839 65.16 350.759 67.2933 353.66 68.744C356.561 70.1093 359.889 70.792 363.644 70.792C367.143 70.792 370.428 70.3653 373.5 69.512C376.657 68.5733 379.217 67.5067 381.18 66.312C382.545 67.1653 383.697 68.36 384.636 69.896C385.575 71.432 386.044 73.0533 386.044 74.76C386.044 78.6 384.252 81.4587 380.668 83.336C377.937 84.7867 374.865 85.768 371.452 86.28C368.039 86.792 364.839 87.048 361.852 87.048ZM358.268 36.744C356.22 36.744 354.428 37.0853 352.892 37.768C351.441 38.4507 350.247 39.3467 349.308 40.456C348.369 41.48 347.644 42.6747 347.132 44.04C346.705 45.32 346.449 46.6427 346.364 48.008L368.252 44.424C367.996 42.7173 367.057 41.0107 365.436 39.304C363.815 37.5973 361.425 36.744 358.268 36.744Z" fill="#153423"/>
</svg>
