<svg width="44" height="44" viewBox="0 0 44 44" fill="none" xmlns="http://www.w3.org/2000/svg">
<rect width="44" height="44" rx="22" transform="matrix(-1 0 0 1 44 0)" fill="#4C956C" fill-opacity="0.25"/>
<path d="M15.3333 22.2286C15.3333 22.5451 15.5684 22.8065 15.8734 22.8479L15.9583 22.8536L28.4583 22.8536C28.8034 22.8536 29.0833 22.5738 29.0833 22.2286C29.0833 21.9122 28.8481 21.6507 28.5431 21.6093L28.4583 21.6036L15.9583 21.6036C15.6131 21.6036 15.3333 21.8835 15.3333 22.2286Z" fill="#2C6E49"/>
<path d="M22.9758 26.8061C22.7312 27.0496 22.7303 27.4454 22.9739 27.69C23.1953 27.9123 23.5424 27.9332 23.7875 27.7522L23.8577 27.6919L28.8994 22.6719C29.1224 22.4498 29.1427 22.1014 28.9603 21.8563L28.8994 21.7861L23.8578 16.7653C23.6132 16.5217 23.2175 16.5225 22.9739 16.7671C22.7525 16.9895 22.733 17.3367 22.9151 17.581L22.9757 17.651L27.5724 22.2292L22.9758 26.8061Z" fill="#2C6E49"/>
</svg>
