<svg width="100" height="100" viewBox="0 0 100 100" fill="none" xmlns="http://www.w3.org/2000/svg">
<rect x="1" y="1" width="98" height="98" rx="7" fill="#EFEFF0"/>
<mask id="mask0_34_2026" style="mask-type:alpha" maskUnits="userSpaceOnUse" x="40" y="40" width="20" height="20">
<path fill-rule="evenodd" clip-rule="evenodd" d="M40.0004 40.0002H59.96V59.95H40.0004V40.0002Z" fill="white"/>
</mask>
<g mask="url(#mask0_34_2026)">
<path fill-rule="evenodd" clip-rule="evenodd" d="M45.6504 41.5C43.1294 41.5 41.5004 43.227 41.5004 45.899V54.051C41.5004 56.724 43.1294 58.45 45.6504 58.45H54.3004C56.8274 58.45 58.4604 56.724 58.4604 54.051V45.899C58.4604 43.227 56.8274 41.5 54.3004 41.5H45.6504ZM54.3004 59.95H45.6504C42.2704 59.95 40.0004 57.579 40.0004 54.051V45.899C40.0004 42.371 42.2704 40 45.6504 40H54.3004C57.6854 40 59.9604 42.371 59.9604 45.899V54.051C59.9604 57.579 57.6854 59.95 54.3004 59.95Z" fill="#AFB1B6"/>
</g>
<path fill-rule="evenodd" clip-rule="evenodd" d="M43.2814 55.1805C43.0954 55.1805 42.9104 55.1125 42.7654 54.9745C42.4644 54.6905 42.4524 54.2145 42.7374 53.9155L44.2654 52.3025C45.0744 51.4435 46.4394 51.4015 47.3024 52.2115L48.2604 53.1835C48.5274 53.4535 48.9614 53.4585 49.2294 53.1945C49.3304 53.0755 51.5084 50.4305 51.5084 50.4305C51.9224 49.9285 52.5064 49.6185 53.1554 49.5545C53.8054 49.4975 54.4364 49.6865 54.9394 50.0995C54.9824 50.1345 55.0214 50.1685 57.2174 52.4235C57.5064 52.7195 57.5014 53.1945 57.2044 53.4835C56.9084 53.7745 56.4324 53.7655 56.1434 53.4695C56.1434 53.4695 54.0944 51.3665 53.9484 51.2245C53.7934 51.0975 53.5444 51.0235 53.2994 51.0475C53.0504 51.0725 52.8264 51.1915 52.6674 51.3845C50.3434 54.2035 50.3154 54.2305 50.2774 54.2675C49.4194 55.1095 48.0344 55.0955 47.1914 54.2355C47.1914 54.2355 46.2614 53.2915 46.2454 53.2725C46.0144 53.0585 45.6024 53.0725 45.3554 53.3335L43.8254 54.9465C43.6774 55.1025 43.4794 55.1805 43.2814 55.1805Z" fill="#AFB1B6"/>
<path fill-rule="evenodd" clip-rule="evenodd" d="M46.5576 46.1289C46.0046 46.1289 45.5546 46.5789 45.5546 47.1329C45.5546 47.6869 46.0046 48.1379 46.5586 48.1379C47.1126 48.1379 47.5636 47.6869 47.5636 47.1329C47.5636 46.5799 47.1126 46.1299 46.5576 46.1289ZM46.5586 49.6379C45.1776 49.6379 44.0546 48.5139 44.0546 47.1329C44.0546 45.7519 45.1776 44.6289 46.5586 44.6289C47.9406 44.6299 49.0636 45.7539 49.0636 47.1329C49.0636 48.5139 47.9396 49.6379 46.5586 49.6379Z" fill="#AFB1B6"/>
<rect x="1" y="1" width="98" height="98" rx="7" stroke="#AFB1B6" stroke-width="2"/>
</svg>
