<svg width="110" height="25" viewBox="0 0 110 25" fill="none" xmlns="http://www.w3.org/2000/svg">
<path d="M0.116 15.252C0.116 13.668 0.356 12.3 0.836 11.148C1.316 9.972 1.976 9 2.816 8.232C3.68 7.464 4.676 6.9 5.804 6.54C6.956 6.156 8.192 5.964 9.512 5.964C9.992 5.964 10.46 6.012 10.916 6.108C11.372 6.18 11.744 6.276 12.032 6.396V0.563999C12.272 0.491999 12.656 0.419999 13.184 0.348C13.712 0.252 14.252 0.204 14.804 0.204C15.332 0.204 15.8 0.239999 16.208 0.311998C16.64 0.383999 17 0.527999 17.288 0.743999C17.576 0.959999 17.792 1.26 17.936 1.644C18.08 2.004 18.152 2.484 18.152 3.084V20.148C18.152 21.276 17.624 22.176 16.568 22.848C15.872 23.304 14.972 23.7 13.868 24.036C12.764 24.396 11.492 24.576 10.052 24.576C8.492 24.576 7.088 24.36 5.84 23.928C4.616 23.496 3.572 22.872 2.708 22.056C1.868 21.24 1.22 20.268 0.764 19.14C0.332 17.988 0.116 16.692 0.116 15.252ZM10.34 10.752C9.044 10.752 8.048 11.124 7.352 11.868C6.656 12.612 6.308 13.74 6.308 15.252C6.308 16.74 6.632 17.868 7.28 18.636C7.928 19.38 8.864 19.752 10.088 19.752C10.52 19.752 10.904 19.692 11.24 19.572C11.6 19.428 11.876 19.272 12.068 19.104V11.184C11.588 10.896 11.012 10.752 10.34 10.752ZM38.9938 15.252C38.9938 16.74 38.7658 18.072 38.3098 19.248C37.8538 20.4 37.2058 21.372 36.3658 22.164C35.5498 22.956 34.5658 23.556 33.4138 23.964C32.2618 24.372 30.9778 24.576 29.5618 24.576C28.1458 24.576 26.8618 24.36 25.7098 23.928C24.5578 23.496 23.5618 22.884 22.7218 22.092C21.9058 21.276 21.2698 20.292 20.8138 19.14C20.3578 17.988 20.1298 16.692 20.1298 15.252C20.1298 13.836 20.3578 12.552 20.8138 11.4C21.2698 10.248 21.9058 9.276 22.7218 8.484C23.5618 7.668 24.5578 7.044 25.7098 6.612C26.8618 6.18 28.1458 5.964 29.5618 5.964C30.9778 5.964 32.2618 6.192 33.4138 6.648C34.5658 7.08 35.5498 7.704 36.3658 8.52C37.2058 9.312 37.8538 10.284 38.3098 11.436C38.7658 12.588 38.9938 13.86 38.9938 15.252ZM26.3938 15.252C26.3938 16.716 26.6698 17.844 27.2218 18.636C27.7978 19.404 28.5898 19.788 29.5978 19.788C30.6058 19.788 31.3738 19.392 31.9018 18.6C32.4538 17.808 32.7298 16.692 32.7298 15.252C32.7298 13.812 32.4538 12.708 31.9018 11.94C31.3498 11.148 30.5698 10.752 29.5618 10.752C28.5538 10.752 27.7738 11.148 27.2218 11.94C26.6698 12.708 26.3938 13.812 26.3938 15.252ZM51.9875 12.912C51.9875 12.168 51.7715 11.628 51.3395 11.292C50.9315 10.932 50.3675 10.752 49.6475 10.752C49.1675 10.752 48.6875 10.812 48.2075 10.932C47.7515 11.052 47.3555 11.232 47.0195 11.472V23.964C46.7795 24.036 46.3955 24.108 45.8675 24.18C45.3635 24.252 44.8355 24.288 44.2835 24.288C43.7555 24.288 43.2755 24.252 42.8435 24.18C42.4355 24.108 42.0875 23.964 41.7995 23.748C41.5115 23.532 41.2835 23.244 41.1155 22.884C40.9715 22.5 40.8995 22.008 40.8995 21.408V10.608C40.8995 9.96 41.0315 9.432 41.2955 9.024C41.5835 8.616 41.9675 8.244 42.4475 7.908C43.2635 7.332 44.2835 6.864 45.5075 6.504C46.7555 6.144 48.1355 5.964 49.6475 5.964C52.3595 5.964 54.4475 6.564 55.9115 7.764C57.3755 8.94 58.1075 10.584 58.1075 12.696V23.964C57.8675 24.036 57.4835 24.108 56.9555 24.18C56.4515 24.252 55.9235 24.288 55.3715 24.288C54.8435 24.288 54.3635 24.252 53.9315 24.18C53.5235 24.108 53.1755 23.964 52.8875 23.748C52.5995 23.532 52.3715 23.244 52.2035 22.884C52.0595 22.5 51.9875 22.008 51.9875 21.408V12.912ZM68.2958 20.112C68.7038 20.112 69.1478 20.076 69.6278 20.004C70.1318 19.908 70.5038 19.788 70.7438 19.644V16.764L68.1518 16.98C67.4798 17.028 66.9278 17.172 66.4958 17.412C66.0638 17.652 65.8478 18.012 65.8478 18.492C65.8478 18.972 66.0278 19.368 66.3878 19.68C66.7718 19.968 67.4078 20.112 68.2958 20.112ZM68.0078 5.964C69.3038 5.964 70.4798 6.096 71.5358 6.36C72.6158 6.624 73.5278 7.032 74.2718 7.584C75.0398 8.112 75.6278 8.796 76.0358 9.636C76.4438 10.452 76.6478 11.424 76.6478 12.552V20.616C76.6478 21.24 76.4678 21.756 76.1078 22.164C75.7718 22.548 75.3638 22.884 74.8838 23.172C73.3238 24.108 71.1278 24.576 68.2958 24.576C67.0238 24.576 65.8718 24.456 64.8398 24.216C63.8318 23.976 62.9558 23.616 62.2118 23.136C61.4918 22.656 60.9278 22.044 60.5198 21.3C60.1358 20.556 59.9438 19.692 59.9438 18.708C59.9438 17.052 60.4358 15.78 61.4198 14.892C62.4038 14.004 63.9278 13.452 65.9918 13.236L70.7078 12.732V12.48C70.7078 11.784 70.3958 11.292 69.7718 11.004C69.1718 10.692 68.2958 10.536 67.1438 10.536C66.2318 10.536 65.3438 10.632 64.4798 10.824C63.6158 11.016 62.8358 11.256 62.1398 11.544C61.8278 11.328 61.5638 11.004 61.3478 10.572C61.1318 10.116 61.0238 9.648 61.0238 9.168C61.0238 8.544 61.1678 8.052 61.4558 7.692C61.7678 7.308 62.2358 6.984 62.8598 6.72C63.5558 6.456 64.3718 6.264 65.3078 6.144C66.2678 6.024 67.1678 5.964 68.0078 5.964ZM85.4298 23.964C85.1898 24.036 84.8058 24.108 84.2778 24.18C83.7738 24.252 83.2458 24.288 82.6938 24.288C82.1658 24.288 81.6858 24.252 81.2538 24.18C80.8458 24.108 80.4978 23.964 80.2098 23.748C79.9218 23.532 79.6938 23.244 79.5258 22.884C79.3818 22.5 79.3098 22.008 79.3098 21.408V10.608C79.3098 10.056 79.4058 9.588 79.5978 9.204C79.8138 8.796 80.1138 8.436 80.4978 8.124C80.8818 7.812 81.3498 7.536 81.9018 7.296C82.4778 7.032 83.0898 6.804 83.7378 6.612C84.3858 6.42 85.0578 6.276 85.7538 6.18C86.4498 6.06 87.1458 6 87.8418 6C88.9938 6 89.9058 6.228 90.5778 6.684C91.2498 7.116 91.5858 7.836 91.5858 8.844C91.5858 9.18 91.5378 9.516 91.4418 9.852C91.3458 10.164 91.2258 10.452 91.0818 10.716C90.5778 10.716 90.0618 10.74 89.5338 10.788C89.0058 10.836 88.4898 10.908 87.9858 11.004C87.4818 11.1 87.0018 11.208 86.5458 11.328C86.1138 11.424 85.7418 11.544 85.4298 11.688V23.964ZM101.615 24.576C100.199 24.576 98.8786 24.384 97.6546 24C96.4546 23.592 95.3986 22.992 94.4866 22.2C93.5986 21.408 92.8906 20.412 92.3626 19.212C91.8586 18.012 91.6066 16.608 91.6066 15C91.6066 13.416 91.8586 12.06 92.3626 10.932C92.8906 9.78 93.5746 8.844 94.4146 8.124C95.2546 7.38 96.2146 6.84 97.2946 6.504C98.3746 6.144 99.4786 5.964 100.607 5.964C101.879 5.964 103.031 6.156 104.063 6.54C105.119 6.924 106.019 7.452 106.763 8.124C107.531 8.796 108.119 9.6 108.527 10.536C108.959 11.472 109.175 12.492 109.175 13.596C109.175 14.412 108.947 15.036 108.491 15.468C108.035 15.9 107.399 16.176 106.583 16.296L97.6906 17.628C97.9546 18.42 98.4946 19.02 99.3106 19.428C100.127 19.812 101.063 20.004 102.119 20.004C103.103 20.004 104.027 19.884 104.891 19.644C105.779 19.38 106.499 19.08 107.051 18.744C107.435 18.984 107.759 19.32 108.023 19.752C108.287 20.184 108.419 20.64 108.419 21.12C108.419 22.2 107.915 23.004 106.907 23.532C106.139 23.94 105.275 24.216 104.315 24.36C103.355 24.504 102.455 24.576 101.615 24.576ZM100.607 10.428C100.031 10.428 99.5266 10.524 99.0946 10.716C98.6866 10.908 98.3506 11.16 98.0866 11.472C97.8226 11.76 97.6186 12.096 97.4746 12.48C97.3546 12.84 97.2826 13.212 97.2586 13.596L103.415 12.588C103.343 12.108 103.079 11.628 102.623 11.148C102.167 10.668 101.495 10.428 100.607 10.428Z" fill="#FEFEE3"/>
</svg>
