<svg width="44" height="44" viewBox="0 0 44 44" fill="none" xmlns="http://www.w3.org/2000/svg">
<rect width="44" height="44" rx="22" fill="#4C956C" fill-opacity="0.25"/>
<path d="M28.6667 22.2286C28.6667 22.5451 28.4316 22.8065 28.1266 22.8479L28.0417 22.8536L15.5417 22.8536C15.1966 22.8536 14.9167 22.5738 14.9167 22.2286C14.9167 21.9122 15.1519 21.6507 15.4569 21.6093L15.5417 21.6036L28.0417 21.6036C28.3869 21.6036 28.6667 21.8835 28.6667 22.2286Z" fill="#2C6E49"/>
<path d="M21.0242 26.8061C21.2688 27.0496 21.2697 27.4454 21.0261 27.69C20.8047 27.9123 20.4576 27.9332 20.2125 27.7522L20.1423 27.6919L15.1006 22.6719C14.8776 22.4498 14.8573 22.1014 15.0397 21.8563L15.1006 21.7861L20.1422 16.7653C20.3868 16.5217 20.7825 16.5225 21.0261 16.7671C21.2475 16.9895 21.267 17.3367 21.0849 17.581L21.0243 17.651L16.4276 22.2292L21.0242 26.8061Z" fill="#2C6E49"/>
</svg>
