<svg width="28" height="29" viewBox="0 0 28 29" fill="none" xmlns="http://www.w3.org/2000/svg">
<path fill-rule="evenodd" clip-rule="evenodd" d="M13.7085 19.3467C13.2255 19.3467 12.8335 18.9547 12.8335 18.4717V9.92352C12.8335 9.44052 13.2255 9.04852 13.7085 9.04852C14.1915 9.04852 14.5835 9.44052 14.5835 9.92352V18.4717C14.5835 18.9547 14.1915 19.3467 13.7085 19.3467" fill="#FCFDFF"/>
<path fill-rule="evenodd" clip-rule="evenodd" d="M17.9861 15.0719H9.43091C8.94674 15.0719 8.55591 14.6799 8.55591 14.1969C8.55591 13.7139 8.94674 13.3219 9.43091 13.3219H17.9861C18.4691 13.3219 18.8611 13.7139 18.8611 14.1969C18.8611 14.6799 18.4691 15.0719 17.9861 15.0719" fill="#FCFDFF"/>
<path fill-rule="evenodd" clip-rule="evenodd" d="M8.24142 3.41666C5.00742 3.41666 2.91675 5.62983 2.91675 9.0575V19.3592C2.91675 22.7868 5.00742 25 8.24142 25H19.1754C22.4106 25 24.5001 22.7868 24.5001 19.3592V9.0575C24.5001 5.62983 22.4106 3.41666 19.1754 3.41666H8.24142ZM19.1754 26.75H8.24142C4.00991 26.75 1.16675 23.7797 1.16675 19.3592V9.0575C1.16675 4.637 4.00991 1.66666 8.24142 1.66666H19.1754C23.4069 1.66666 26.2501 4.637 26.2501 9.0575V19.3592C26.2501 23.7797 23.4069 26.75 19.1754 26.75V26.75Z" fill="#FCFDFF"/>
</svg>
